<?xml version="1.0" standalone="no"?>
<!DOCTYPE svg PUBLIC "-//W3C//DTD SVG 20010904//EN"
 "http://www.w3.org/TR/2001/REC-SVG-20010904/DTD/svg10.dtd">
<svg version="1.0" xmlns="http://www.w3.org/2000/svg"
 width="2000.000000pt" height="2000.000000pt" viewBox="0 0 2000.000000 2000.000000"
 preserveAspectRatio="xMidYMid meet">

<g transform="translate(0.000000,2000.000000) scale(0.100000,-0.100000)"
fill="#000000" stroke="none">
<path d="M0 10000 l0 -10000 10000 0 10000 0 0 10000 0 10000 -10000 0 -10000
0 0 -10000z m2415 2271 c502 -70 873 -240 1171 -539 239 -239 412 -521 509
-828 125 -399 119 -900 -15 -1297 -118 -346 -347 -677 -624 -901 -262 -212
-541 -333 -929 -403 -130 -24 -171 -26 -499 -30 l-358 -5 0 2012 0 2012 333
-5 c182 -3 368 -10 412 -16z m8851 -108 c-4 -21 -10 -46 -13 -57 -8 -30 -23 2
-23 52 0 36 3 42 21 42 19 0 21 -4 15 -37z m-19 -105 c-3 -8 -6 -5 -6 6 -1 11
2 17 5 13 3 -3 4 -12 1 -19z m-6354 -177 c74 -35 148 -108 180 -179 18 -39 22
-65 22 -152 0 -102 -1 -107 -36 -170 -88 -159 -283 -233 -450 -170 -254 95
-322 428 -124 607 83 76 162 104 272 98 54 -2 88 -11 136 -34z m6264 -3 c-3
-8 -6 -5 -6 6 -1 11 2 17 5 13 3 -3 4 -12 1 -19z m3813 -533 l0 -485 233 -2
232 -3 3 -262 2 -263 -235 0 -235 0 0 -1030 0 -1030 -260 0 -260 0 0 1030 0
1030 -235 0 -235 0 2 263 3 262 233 3 232 2 0 479 c0 262 3 481 7 484 3 4 120
7 260 7 l253 0 0 -485z m-3925 420 c34 -29 38 -37 29 -52 -6 -10 -29 -21 -50
-24 -21 -3 -52 -11 -67 -18 -40 -16 -68 -13 -95 8 -19 16 -21 23 -12 46 23 61
41 74 100 74 48 0 60 -4 95 -34z m-2450 -705 c349 -40 610 -165 851 -405 124
-123 303 -352 282 -360 -31 -11 -274 -100 -387 -142 l-124 -46 -35 44 c-218
272 -493 396 -819 369 -154 -13 -275 -55 -403 -141 -203 -136 -344 -342 -386
-567 -20 -108 -14 -325 11 -417 41 -145 119 -277 231 -390 120 -119 252 -196
414 -241 101 -28 348 -26 455 5 177 50 340 158 463 305 35 42 70 76 77 76 12
0 138 -44 384 -134 68 -25 125 -47 127 -49 9 -9 -214 -286 -291 -362 -277
-273 -605 -405 -1002 -405 -400 0 -750 149 -1025 438 -188 197 -299 398 -364
656 -32 124 -44 410 -25 547 46 317 178 575 413 806 132 130 236 206 383 281
218 109 517 161 770 132z m4371 -21 c297 -57 511 -174 742 -406 72 -73 132
-138 132 -143 0 -6 -363 -375 -807 -821 -445 -446 -809 -814 -811 -818 -5 -14
96 -61 174 -82 55 -14 126 -22 229 -26 128 -4 164 -2 248 16 206 43 376 148
512 316 33 40 67 74 75 74 23 1 504 -175 507 -185 4 -11 -110 -163 -208 -279
-219 -261 -550 -438 -888 -475 -133 -15 -368 -8 -477 14 -255 51 -492 178
-691 369 -275 264 -413 551 -442 917 -17 206 4 393 65 578 68 207 183 391 350
557 120 119 226 197 366 270 154 79 270 113 523 149 66 10 298 -5 401 -25z
m4120 6 c237 -41 438 -140 614 -302 l69 -64 3 88 3 88 260 0 260 0 0 -1295 0
-1295 -260 0 -260 0 -3 158 -3 159 -64 -60 c-229 -214 -500 -322 -812 -322
-377 0 -704 130 -972 385 -222 212 -346 423 -418 710 -26 104 -28 123 -28 335
0 211 2 232 27 330 71 283 201 506 410 706 272 259 593 389 969 393 64 1 156
-6 205 -14z m-10758 -148 c101 -36 176 -84 252 -161 79 -81 133 -161 160 -240
25 -74 25 -73 -2 -78 -13 -3 -126 -35 -253 -72 -126 -37 -231 -64 -232 -59
-28 81 -97 128 -173 118 -94 -13 -160 -88 -160 -181 0 -102 66 -162 390 -351
127 -75 231 -151 313 -232 114 -110 175 -207 224 -355 25 -75 27 -94 27 -241
0 -145 -3 -168 -27 -243 -86 -270 -296 -478 -567 -563 -66 -21 -94 -24 -235
-23 -148 0 -167 2 -245 28 -216 72 -393 223 -493 421 -24 49 -67 175 -67 199
0 13 25 19 335 86 77 16 149 32 161 35 18 4 23 -3 37 -55 33 -118 137 -192
269 -193 151 0 267 89 304 234 19 75 14 131 -20 204 -40 89 -141 169 -418 334
-188 111 -289 190 -360 279 -111 140 -152 259 -152 437 0 131 17 205 76 325
68 140 226 283 369 336 100 37 143 43 279 40 116 -2 145 -6 208 -29z m4872
-252 l0 -275 -42 0 c-109 -1 -272 -64 -371 -144 -121 -99 -228 -272 -271 -440
l-26 -98 0 -709 0 -709 -265 0 -265 0 2 1293 3 1292 260 0 260 0 5 -168 5
-167 45 56 c93 117 256 237 391 288 74 28 187 54 237 55 l32 1 0 -275z m-6202
-1082 l2 -1293 -265 0 -265 0 0 1288 c0 709 3 1292 7 1295 4 4 122 6 262 5
l256 -3 3 -1292z m11230 -1347 c8 -26 10 -52 5 -56 -4 -4 -59 -24 -121 -43
l-113 -35 -10 24 c-26 71 -30 67 88 117 59 25 115 45 123 44 8 -1 20 -23 28
-51z m-5045 -209 c90 -50 127 -141 127 -311 0 -134 -21 -207 -74 -261 -49 -48
-98 -65 -192 -65 -92 0 -134 13 -183 58 -62 55 -81 120 -81 272 0 174 35 260
125 308 72 38 210 38 278 -1z m2000 0 c90 -50 127 -141 127 -313 0 -117 -15
-178 -60 -241 l-31 -43 37 -60 c20 -33 35 -62 33 -64 -2 -2 -30 -15 -61 -29
l-58 -26 -41 70 -41 69 -57 0 c-79 0 -123 15 -170 58 -62 55 -81 120 -81 272
0 174 35 260 125 308 72 38 210 38 278 -1z m3008 23 c115 -22 173 -98 190
-249 12 -107 -1 -232 -30 -289 -26 -50 -81 -98 -128 -111 -21 -6 -72 -11 -113
-11 -180 0 -259 100 -260 327 0 198 62 307 191 332 62 12 89 12 150 1z m1432
-10 c21 -4 41 -11 44 -14 3 -3 2 -25 -1 -50 l-7 -46 -113 3 c-100 2 -116 0
-135 -17 -30 -28 -41 -77 -41 -196 0 -196 17 -215 180 -208 l108 4 6 -50 c3
-27 3 -52 1 -54 -10 -10 -104 -21 -185 -21 -184 -1 -239 65 -248 300 -8 232
37 333 159 359 47 10 169 5 232 -10z m-7028 -12 c48 -26 77 -63 86 -113 11
-60 -2 -120 -35 -154 l-26 -27 29 -22 c62 -45 64 -197 3 -255 -51 -49 -88 -57
-262 -57 l-160 0 0 318 c0 175 3 322 8 326 4 5 79 6 167 4 120 -3 168 -9 190
-20z m955 -225 c5 -239 5 -242 29 -267 21 -22 33 -26 80 -26 40 0 63 6 81 20
l25 19 5 248 5 248 65 0 65 0 0 -250 c0 -235 -1 -253 -21 -296 -16 -35 -34
-54 -70 -75 -46 -27 -57 -29 -154 -29 -91 0 -110 3 -145 23 -59 34 -85 78 -95
159 -9 77 -11 421 -3 453 5 19 12 21 67 18 l61 -3 5 -242z m908 185 l3 -58
-86 0 -85 0 0 -265 0 -265 -70 0 -70 0 0 265 0 265 -85 0 -85 0 0 53 c0 30 3
57 7 61 4 3 110 5 237 4 l231 -3 3 -57z m210 -266 l2 -323 -67 3 -68 3 -3 310
c-1 170 0 316 3 323 3 9 23 12 67 10 l63 -3 3 -323z m882 81 c5 -239 5 -242
29 -267 21 -22 33 -26 80 -26 40 0 63 6 81 20 l25 19 5 248 5 248 65 0 65 0 0
-250 c0 -247 0 -251 -25 -300 -39 -78 -87 -100 -220 -100 -91 0 -110 3 -145
23 -22 13 -52 39 -65 59 -25 36 -25 38 -28 305 l-3 269 63 -3 63 -3 5 -242z
m908 185 l3 -58 -146 0 -146 0 3 -72 3 -73 113 -3 112 -3 0 -54 0 -54 -112 -3
-113 -3 -3 -72 -3 -72 143 -3 143 -3 3 -57 3 -58 -211 0 -210 0 0 318 c0 175
3 322 7 326 4 3 97 5 207 4 l201 -3 3 -57z m730 0 l3 -58 -146 0 -146 0 3 -72
3 -73 113 -3 112 -3 0 -54 0 -55 -115 0 -115 0 0 -75 0 -74 143 -3 142 -3 3
-57 3 -58 -211 0 -210 0 0 318 c0 175 3 322 7 326 4 3 97 5 207 4 l201 -3 3
-57z m477 35 c74 -38 105 -95 105 -193 0 -67 -16 -108 -61 -156 l-29 -30 39
-105 c21 -57 42 -112 46 -121 6 -16 0 -18 -67 -18 l-75 0 -35 103 -35 102 -62
3 -61 3 0 -106 0 -105 -70 0 -70 0 0 318 c0 175 3 322 8 326 4 5 79 6 167 4
135 -4 166 -8 200 -25z m1243 -35 l3 -58 -85 0 -86 0 -2 -262 -3 -263 -67 -3
-68 -3 0 266 0 265 -85 0 -85 0 0 53 c0 30 3 57 7 61 4 3 110 5 237 4 l231 -3
3 -57z m210 -265 l2 -323 -70 0 -70 0 0 318 c0 175 3 322 7 326 4 4 34 6 68 4
l60 -3 3 -322z m992 305 c5 -13 25 -95 45 -183 19 -88 48 -220 65 -293 16 -73
30 -138 30 -143 0 -5 -29 -9 -65 -9 -62 0 -65 1 -71 28 -3 15 -9 41 -13 57
l-7 30 -110 0 -109 0 -14 -57 -13 -58 -64 0 c-49 0 -64 3 -64 15 0 8 18 94 39
192 22 98 52 232 67 298 14 66 31 126 36 133 7 8 45 12 124 12 109 0 115 -1
124 -22z"/>
<path d="M2200 10280 l0 -1480 68 0 c169 1 412 56 569 131 344 164 629 498
751 879 46 146 66 290 66 475 -1 453 -168 824 -511 1137 -163 148 -395 261
-616 302 -84 15 -256 36 -302 36 l-25 0 0 -1480z"/>
<path d="M12587 10519 c-152 -13 -297 -69 -422 -161 -278 -207 -401 -503 -366
-874 11 -108 34 -209 52 -229 6 -6 231 212 614 595 333 333 605 608 605 611 0
12 -77 38 -142 48 -92 14 -240 19 -341 10z"/>
<path d="M16738 10510 c-330 -60 -621 -324 -702 -636 -56 -219 -37 -445 55
-631 114 -231 321 -405 566 -475 105 -31 348 -33 463 -4 163 40 358 162 465
292 64 78 130 196 159 286 27 82 27 86 24 308 l-3 225 -32 80 c-61 152 -178
299 -316 401 -80 59 -151 95 -257 129 -73 24 -105 28 -230 31 -80 1 -166 -1
-192 -6z"/>
<path d="M10983 7904 c-48 -24 -63 -73 -63 -204 0 -166 25 -210 120 -210 104
0 130 41 130 210 0 117 -11 160 -48 194 -29 25 -99 31 -139 10z"/>
<path d="M12991 7908 c-53 -29 -66 -61 -69 -180 -5 -134 1 -168 34 -208 24
-27 31 -30 88 -30 52 0 66 4 84 23 34 37 44 77 44 188 -1 113 -13 159 -50 193
-27 23 -99 31 -131 14z"/>
<path d="M16065 7911 c-54 -23 -75 -82 -75 -215 0 -77 5 -111 19 -143 24 -51
45 -63 114 -63 45 0 59 4 80 26 33 33 42 75 41 194 -1 116 -15 165 -58 191
-32 20 -86 24 -121 10z"/>
<path d="M10364 7896 c-3 -7 -4 -40 -2 -72 l3 -59 66 -3 c82 -4 119 19 119 74
0 56 -27 74 -110 74 -50 0 -72 -4 -76 -14z"/>
<path d="M10365 7638 c-4 -9 -5 -44 -3 -79 l3 -64 77 0 c93 1 118 17 118 75 0
56 -26 74 -116 78 -58 3 -75 1 -79 -10z"/>
<path d="M15430 7809 l0 -101 81 4 c70 3 83 6 100 27 29 36 26 115 -6 146 -21
22 -33 25 -100 25 l-75 0 0 -101z"/>
<path d="M17946 7833 c-9 -43 -23 -106 -31 -140 -8 -34 -15 -67 -15 -73 0 -12
157 -14 163 -2 2 4 -10 71 -26 150 -28 131 -32 142 -53 142 -19 0 -24 -9 -38
-77z"/>
</g>
</svg>
