<?xml version="1.0" standalone="no"?>
<!DOCTYPE svg PUBLIC "-//W3C//DTD SVG 20010904//EN"
 "http://www.w3.org/TR/2001/REC-SVG-20010904/DTD/svg10.dtd">
<svg version="1.0" xmlns="http://www.w3.org/2000/svg"
 width="3780.000000pt" height="3780.000000pt" viewBox="0 0 3780.000000 3780.000000"
 preserveAspectRatio="xMidYMid meet">
<g transform="translate(0.000000,3780.000000) scale(0.100000,-0.100000)" fill="#dc2626" stroke="none">
<path d="M3168 23225 c-5 -5 -8 -1715 -8 -3802 l0 -3793 483 0 c697 0 977 25 1412 125 490 113 947 313 1305 570 340 245 684 609 934 990 475 723 673 1552 595 2490 -66 800 -377 1531 -917 2156 -120 138 -346 360 -462 452 -586 466 -1301 725 -2205 797 -162 13 -1127 25 -1137 15z m1347 -1021 c822 -89 1460 -486 1942 -1207 237 -354 384 -760 439 -1209 22 -179 22 -546 0 -728 -43 -356 -132 -647 -291 -957 -243 -474 -651 -904 -1090 -1149 -358 -200 -801 -318 -1231 -326 l-139 -3 -3 2790 c-1 1535 0 2796 3 2802 5 15 157 9 370 -13z"/>
<path d="M21166 23151 c-3 -4 -5 -52 -6 -106 -1 -55 -5 -163 -8 -240 -7 -135 -8 -140 -29 -143 -19 -3 -23 -10 -23 -38 0 -23 -6 -37 -17 -41 -16 -6 -34 -21 -78 -63 -19 -19 -28 -19 -150 -10 -125 10 -131 9 -144 -10 -10 -15 -25 -20 -62 -20 -44 0 -53 -4 -101 -49 -122 -114 -143 -131 -160 -137 -14 -4 -18 -16 -18 -54 0 -51 -12 -70 -67 -107 -13 -9 -23 -26 -23 -39 0 -14 -10 -30 -25 -40 -16 -10 -25 -26 -25 -41 0 -24 -51 -82 -107 -120 -15 -10 -23 -25 -23 -43 0 -28 -15 -40 -52 -40 -11 0 -38 -18 -60 -41 -32 -32 -45 -39 -64 -35 -17 5 -27 1 -36 -14 -8 -12 -24 -20 -40 -20 -15 0 -36 -9 -47 -21 -15 -16 -29 -20 -66 -18 -37 3 -50 -1 -61 -16 -12 -16 -26 -18 -108 -16 -80 2 -96 0 -104 -15 -8 -14 -25 -16 -113 -15 -128 2 -167 8 -179 31 -7 14 -29 18 -117 24 -99 6 -110 9 -128 31 -18 22 -29 25 -82 25 -59 0 -93 15 -93 41 0 5 -22 9 -49 9 -41 0 -51 4 -65 25 -11 16 -25 25 -39 24 -52 -5 -76 1 -82 21 -4 14 -15 20 -35 20 -19 0 -33 8 -44 25 -11 17 -26 25 -45 25 -24 0 -35 9 -58 45 -27 43 -30 44 -79 45 -48 0 -52 2 -84 45 -32 42 -37 45 -82 45 -37 0 -50 4 -58 20 -6 11 -20 20 -31 20 -11 0 -30 11 -43 25 -18 19 -33 25 -64 25 -33 0 -45 5 -58 25 -15 24 -21 25 -105 25 -70 0 -91 -3 -95 -15 -4 -9 -19 -15 -40 -15 -23 0 -37 -6 -44 -20 -6 -11 -17 -20 -25 -20 -25 0 -18 -51 12 -82 20 -21 36 -28 64 -28 35 0 69 -20 69 -41 0 -5 13 -9 28 -9 22 0 39 -12 73 -52 24 -29 72 -82 107 -118 49 -51 62 -71 60 -92 -2 -20 10 -39 57 -86 33 -34 85 -89 115 -123 30 -34 70 -78 88 -98 19 -20 41 -46 49 -58 8 -13 23 -23 33 -23 39 0 50 -11 50 -51 0 -38 1 -39 35 -39 24 0 37 -6 45 -20 6 -11 21 -20 33 -20 20 0 87 -63 87 -82 0 -4 13 -8 30 -8 20 0 35 -8 46 -25 13 -20 24 -25 60 -25 35 0 47 -5 60 -25 14 -21 24 -25 65 -25 43 0 51 -3 58 -23 9 -23 13 -24 183 -30 170 -6 173 -7 191 -32 17 -22 26 -25 82 -25 52 0 65 3 76 20 14 20 18 20 208 10 190 -11 193 -11 208 9 11 16 25 21 62 21 31 0 53 5 61 15 9 11 33 15 84 15 60 0 74 3 90 21 15 18 25 20 60 15 35 -6 46 -3 61 14 10 11 31 20 46 20 18 0 32 7 39 20 8 15 19 20 41 18 20 -2 34 3 40 15 6 10 22 17 39 17 22 0 44 15 91 60 41 40 70 60 86 60 14 0 40 15 61 34 41 38 123 113 149 136 9 8 33 17 53 20 30 4 35 9 38 35 3 19 18 43 43 66 21 20 39 44 39 53 0 17 74 95 117 123 15 10 23 25 23 44 0 18 7 32 20 39 15 8 20 21 20 51 0 29 6 46 24 62 20 19 24 34 28 110 5 75 9 91 27 103 29 21 30 92 0 118 -14 12 -19 24 -15 39 3 12 6 63 6 113 0 87 1 91 25 102 22 10 25 18 25 67 0 52 1 55 25 55 l25 0 0 100 c0 81 -3 100 -15 100 -16 0 -45 -49 -45 -75 0 -17 -27 -32 -38 -20 -4 3 -10 37 -13 73 -4 37 -12 106 -18 154 -11 75 -10 90 4 117 8 17 22 31 31 31 20 0 67 -25 83 -44 20 -24 31 -19 31 14 0 21 -5 30 -16 30 -9 0 -23 9 -32 19 -17 19 -127 37 -136 22z m57 -457 c11 -11 -5 -34 -24 -34 -18 0 -26 20 -12 33 8 9 28 9 36 1z m-23 -84 c0 -5 -7 -10 -15 -10 -8 0 -15 5 -15 10 0 6 7 10 15 10 8 0 15 -4 15 -10z m-87 -117 c-6 -47 -26 -83 -46 -83 -6 0 -18 7 -28 16 -20 18 -14 51 12 59 10 4 18 9 18 13 -3 21 3 31 24 35 12 2 23 5 24 6 2 0 0 -20 -4 -46z m64 25 c-3 -8 -6 -5 -6 6 -1 11 2 17 5 13 3 -3 4 -12 1 -19z m1 -85 c-2 -22 -9 -29 -32 -31 -18 -2 -26 0 -21 7 3 6 10 9 15 6 4 -3 11 6 14 20 9 34 28 32 24 -2z m-124 -60 c-22 -16 -50 -17 -60 -2 -7 12 15 31 27 23 4 -2 11 0 14 6 5 8 11 7 22 -1 13 -11 13 -14 -3 -26z m51 -14 c-6 -9 -35 -1 -35 10 0 4 3 11 7 14 8 9 34 -13 28 -24z m-308 -19 c41 -9 61 -21 92 -55 45 -49 56 -80 47 -128 -11 -54 -37 -79 -102 -93 -32 -7 -89 -20 -126 -29 -87 -23 -128 -15 -179 35 l-40 39 7 63 c11 109 64 163 174 178 50 6 52 6 127 -10z"/>
<path d="M8794 22505 c-233 -53 -434 -242 -506 -475 -18 -61 -23 -98 -23 -195 0 -205 56 -339 204 -485 141 -140 286 -200 481 -200 195 0 340 60 481 200 148 146 204 280 204 485 0 138 -22 225 -82 333 -76 138 -236 269 -386 318 -101 32 -276 42 -373 19z"/>
<path d="M27317 22343 c-4 -3 -7 -417 -7 -920 l0 -913 -435 0 -435 0 0 -490 0 -490 435 0 435 0 0 -1950 0 -1950 490 0 490 0 0 1950 0 1950 440 0 440 0 0 490 0 490 -437 2 -438 3 -3 918 -2 917 -483 0 c-266 0 -487 -3 -490 -7z"/>
<path d="M15695 20899 c-267 -25 -532 -91 -778 -193 -465 -193 -925 -581 -1225 -1035 -202 -305 -339 -667 -399 -1051 -26 -165 -26 -653 0 -825 92 -619 382 -1154 862 -1595 571 -524 1271 -757 2072 -689 721 60 1368 410 1832 989 151 189 334 436 330 447 -2 5 -945 350 -966 353 -1 0 -50 -57 -109 -127 -209 -246 -361 -371 -602 -492 -386 -194 -897 -221 -1318 -71 -353 125 -674 391 -884 729 -178 287 -261 649 -230 1009 28 338 134 620 328 871 393 507 966 747 1589 666 452 -60 797 -261 1128 -658 72 -87 102 -116 114 -112 14 6 911 337 949 350 14 5 -163 245 -345 467 -248 301 -546 539 -888 708 -192 95 -305 137 -491 184 -157 40 -277 60 -444 75 -132 12 -393 12 -525 0z"/>
<path d="M23705 20900 c-507 -52 -938 -219 -1329 -515 -518 -392 -877 -922 -1020 -1505 -62 -254 -71 -339 -71 -670 0 -333 10 -431 71 -680 123 -500 398 -953 809 -1330 571 -524 1271 -757 2072 -689 721 60 1368 410 1832 989 151 189 334 436 330 447 -2 5 -945 350 -966 353 -1 0 -50 -57 -109 -127 -169 -199 -294 -312 -457 -412 -318 -194 -648 -269 -1071 -242 -319 20 -551 83 -679 184 l-38 30 1535 1537 c845 846 1536 1543 1536 1550 0 17 -222 261 -337 369 -410 389 -900 624 -1448 697 -134 18 -537 26 -660 14z m575 -1010 c187 -17 367 -61 425 -105 19 -15 -38 -73 -1135 -1170 -1131 -1131 -1155 -1155 -1172 -1135 -52 64 -93 254 -109 510 -32 506 72 896 327 1225 296 382 673 607 1124 670 116 16 385 18 540 5z"/>
<path d="M31665 20889 c-265 -25 -560 -98 -788 -195 -615 -263 -1167 -810 -1425 -1414 -147 -341 -212 -675 -212 -1080 0 -317 37 -574 122 -838 130 -408 341 -747 667 -1073 232 -232 442 -384 716 -519 312 -155 594 -232 951 -261 178 -14 458 -7 594 16 448 75 852 281 1198 610 l102 97 0 -306 0 -306 495 0 495 0 0 2445 0 2445 -495 0 -495 0 -2 -165 -3 -166 -105 97 c-388 356 -809 555 -1290 610 -135 15 -380 16 -525 3z m527 -1014 c120 -18 230 -45 330 -81 499 -180 938 -663 1053 -1160 22 -95 22 -773 0 -868 -101 -437 -452 -867 -883 -1085 -435 -219 -1020 -227 -1472 -19 -347 160 -681 500 -837 853 -73 165 -106 286 -128 471 -64 550 99 1025 486 1413 266 266 575 423 933 476 128 18 394 18 518 0z"/>
<path d="M11335 20650 c-124 -23 -166 -34 -250 -62 -110 -38 -167 -65 -270 -132 -325 -212 -543 -540 -601 -906 -23 -144 -15 -409 15 -530 64 -251 171 -438 361 -630 139 -141 320 -267 645 -453 281 -161 562 -363 653 -471 122 -145 163 -363 103 -557 -49 -156 -189 -303 -351 -367 -121 -48 -309 -47 -431 3 -172 70 -268 182 -315 369 -9 36 -21 66 -26 66 -11 0 -938 -199 -954 -204 -14 -5 -1 -69 40 -197 123 -381 419 -719 797 -909 258 -131 619 -181 932 -130 195 32 310 69 467 151 298 156 571 441 706 737 114 249 159 518 136 795 -31 369 -150 642 -399 922 -162 182 -446 390 -813 595 -158 89 -421 270 -491 340 -88 86 -113 149 -107 265 5 96 34 159 102 226 69 68 125 92 226 97 153 7 243 -48 290 -176 21 -57 23 -60 48 -52 15 4 225 65 467 135 242 70 444 131 448 135 11 10 -39 162 -81 245 -55 111 -129 213 -226 314 -190 197 -378 303 -641 362 -102 24 -394 35 -480 19z"/>
<path d="M21075 20629 c-402 -42 -768 -230 -1070 -551 -46 -49 -105 -118 -132 -153 -26 -35 -51 -64 -55 -65 -5 0 -8 146 -8 325 l0 325 -490 0 -490 0 0 -2440 0 -2440 490 0 490 0 0 1233 c0 715 4 1282 10 1350 30 356 142 637 367 914 177 219 379 358 619 428 86 25 236 52 319 57 l40 3 3 513 c1 281 -1 511 -5 511 -5 -1 -44 -5 -88 -10z"/>
<path d="M8460 18070 l0 -2440 490 0 490 0 0 2440 0 2440 -490 0 -490 0 0 -2440z"/>
<path d="M30395 15541 c-115 -48 -210 -92 -210 -97 0 -29 52 -154 63 -154 13 0 443 129 450 135 8 7 -67 200 -79 202 -8 1 -108 -37 -224 -86z"/>
<path d="M20760 15179 c-283 -42 -403 -255 -387 -684 9 -230 43 -340 138 -441 80 -84 198 -124 364 -124 224 1 362 75 436 233 46 101 61 191 62 377 0 264 -39 413 -137 518 -98 104 -279 151 -476 121z m249 -242 c79 -52 111 -162 111 -381 0 -314 -55 -406 -245 -406 -126 0 -195 46 -225 149 -21 73 -32 275 -21 380 24 223 90 296 263 288 63 -3 84 -8 117 -30z"/>
<path d="M24540 15179 c-265 -39 -390 -236 -390 -614 0 -292 61 -467 194 -556 79 -53 140 -70 278 -76 l117 -6 71 -118 c40 -66 77 -122 82 -125 13 -8 218 86 218 100 0 6 -32 61 -70 121 l-69 110 44 45 c113 117 163 347 136 620 -14 138 -25 186 -62 267 -82 184 -288 271 -549 232z m250 -243 c81 -53 110 -159 110 -396 0 -302 -55 -390 -245 -390 -126 0 -179 32 -215 127 -47 126 -47 430 0 556 23 61 72 110 125 127 17 5 65 8 107 6 64 -2 84 -7 118 -30z"/>
<path d="M30349 15179 c-127 -18 -226 -77 -288 -170 -78 -116 -106 -265 -98 -507 10 -298 79 -447 242 -523 132 -62 348 -65 500 -8 192 72 283 317 255 686 -16 211 -68 349 -161 427 -101 86 -271 122 -450 95z m202 -221 c117 -40 159 -149 159 -413 -1 -302 -59 -395 -247 -395 -123 0 -171 28 -212 121 -28 63 -44 221 -37 354 12 206 53 295 153 330 47 17 139 19 184 3z"/>
<path d="M32920 15181 c-92 -13 -156 -40 -208 -86 -108 -97 -142 -223 -142 -530 1 -293 29 -417 116 -514 100 -112 253 -142 541 -106 67 8 129 18 137 21 13 5 16 24 16 106 l0 100 -72 -8 c-40 -5 -136 -9 -213 -9 -128 0 -143 2 -177 23 -77 48 -103 164 -95 427 5 195 20 260 71 311 18 18 50 37 71 43 51 14 171 13 303 -3 57 -6 105 -10 108 -7 2 2 4 46 4 97 l0 93 -37 10 c-108 28 -332 45 -423 32z"/>
<path d="M19348 15164 c-5 -4 -8 -279 -8 -612 l0 -604 303 4 c330 5 354 9 444 70 54 37 78 67 103 136 24 63 29 191 11 259 -15 54 -64 120 -105 140 l-34 16 48 47 c64 63 85 128 78 249 -6 98 -21 141 -68 195 -75 85 -131 97 -480 103 -157 3 -288 2 -292 -3z m553 -242 c27 -24 33 -37 37 -84 6 -74 -12 -125 -52 -149 -27 -16 -51 -19 -168 -19 l-138 0 0 140 0 140 145 0 145 0 31 -28z m-4 -485 c44 -23 63 -64 63 -132 0 -120 -34 -140 -235 -140 l-140 0 -3 134 c-1 74 0 141 3 149 8 22 268 13 312 -11z"/>
<path d="M21584 15157 c-2 -7 -3 -220 -2 -473 3 -420 5 -463 22 -509 57 -153 173 -227 377 -241 231 -16 400 52 468 187 49 98 52 128 49 604 l-3 440 -115 0 -115 0 -5 -435 -5 -435 -25 -50 c-35 -69 -86 -95 -189 -95 -101 0 -155 26 -191 90 l-25 45 -5 440 -5 440 -113 3 c-87 2 -114 0 -118 -11z"/>
<path d="M22657 15163 c-4 -3 -7 -53 -7 -110 l0 -103 160 0 160 0 0 -500 0 -501 123 3 122 3 3 498 2 497 160 0 161 0 -3 108 -3 107 -436 3 c-239 1 -439 -1 -442 -5z"/>
<path d="M23695 15158 c-3 -7 -4 -281 -3 -608 l3 -595 123 -3 122 -3 -2 608 -3 608 -118 3 c-88 2 -119 -1 -122 -10z"/>
<path d="M25367 15164 c-12 -12 -8 -877 4 -936 14 -68 64 -162 103 -195 95 -80 266 -117 444 -95 78 9 112 19 172 49 84 43 124 87 162 180 23 58 23 59 23 528 l0 470 -115 0 -115 0 -5 -435 -5 -435 -25 -50 c-35 -69 -86 -95 -189 -95 -101 0 -155 26 -191 90 l-25 45 -5 440 -5 440 -111 3 c-60 1 -113 -1 -117 -4z"/>
<path d="M26547 15163 c-4 -3 -7 -278 -7 -610 l0 -603 390 0 391 0 -3 108 -3 107 -268 3 -268 2 3 143 3 142 213 3 212 2 0 105 0 105 -215 0 -215 0 0 140 0 140 270 0 271 0 -3 108 -3 107 -381 3 c-209 1 -383 -1 -387 -5z"/>
<path d="M27927 15163 c-4 -3 -7 -278 -7 -610 l0 -603 390 0 391 0 -3 108 -3 107 -268 3 -268 2 3 143 3 142 218 3 218 2 -3 103 -3 102 -217 3 -218 2 0 140 0 140 270 0 271 0 -3 108 -3 107 -381 3 c-209 1 -383 -1 -387 -5z"/>
<path d="M28917 15163 c-4 -3 -7 -278 -7 -610 l0 -603 120 0 120 0 2 203 3 202 116 3 117 3 29 -83 c17 -46 49 -138 73 -205 l42 -123 135 0 c125 0 135 1 128 18 -4 9 -43 113 -87 230 l-80 213 51 45 c127 114 164 352 81 521 -57 115 -150 167 -325 183 -117 11 -509 13 -518 3z m554 -234 c58 -29 82 -87 77 -185 -4 -78 -18 -108 -72 -148 -24 -19 -44 -21 -177 -24 l-149 -3 0 190 0 191 140 0 c122 0 146 -3 181 -21z"/>
<path d="M31064 15162 c-6 -4 -11 -48 -11 -109 l0 -103 164 0 163 0 0 -500 0 -501 123 3 122 3 3 498 2 497 160 0 161 0 -3 108 -3 107 -435 2 c-239 2 -440 -1 -446 -5z"/>
<path d="M32105 15158 c-3 -7 -4 -281 -3 -608 l3 -595 123 -3 122 -3 -2 608 -3 608 -118 3 c-88 2 -119 -1 -122 -10z"/>
<path d="M33754 15157 c-12 -31 -270 -1193 -267 -1199 2 -5 56 -8 119 -8 133 0 120 -11 150 133 l18 87 212 0 c194 0 213 -2 217 -17 3 -10 11 -43 17 -73 7 -30 16 -72 21 -92 l10 -38 119 0 c89 0 120 3 120 13 0 27 -264 1183 -273 1195 -14 18 -456 17 -463 -1z m280 -214 c13 -44 117 -546 113 -549 -2 -3 -76 -3 -164 -2 l-159 3 60 283 61 282 42 0 c31 0 43 -4 47 -17z"/>
</g>
</svg>
